<?xml version="1.0" encoding="UTF-8"?><svg id="Ebene_2" xmlns="http://www.w3.org/2000/svg" xmlns:xlink="http://www.w3.org/1999/xlink" viewBox="0 0 97.58 81.67"><defs><style>.cls-1{fill:#7f7f80;}.cls-1,.cls-2,.cls-3,.cls-4,.cls-5,.cls-6,.cls-7{stroke:#1d1d1b;stroke-linejoin:round;}.cls-2{opacity:0;}.cls-2,.cls-3{fill:#a5a4a4;}.cls-8{fill:url(#Unbenannter_Verlauf_42);}.cls-4{fill:#504f4f;}.cls-5{fill:#828282;}.cls-6{fill:#1c1c1c;}.cls-7{fill:#969696;}</style><linearGradient id="Unbenannter_Verlauf_42" x1="50.47" y1="14.1" x2="98.29" y2=".15" gradientTransform="translate(-31.24 91.2) rotate(-30.38)" gradientUnits="userSpaceOnUse"><stop offset="0" stop-color="#dd3c51"/><stop offset="1" stop-color="#cb6481" stop-opacity="0"/></linearGradient></defs><g id="Ebene_1-2"><polygon class="cls-4" points="97.08 60.55 57.32 37.28 57.32 .5 97.08 23.77 97.08 60.55"/><polygon class="cls-1" points="17.08 54.93 58.93 35.81 58.93 2.52 17.08 21.63 17.08 54.93"/><polygon class="cls-6" points="97.08 40.63 80.6 47.14 71.02 41.77 97.08 31.55 97.08 40.63"/><polygon class="cls-3" points="65.4 56.58 54.84 50.47 54.84 39.16 65.4 45.25 65.4 56.58"/><polygon class="cls-7" points="65.21 45.34 54.84 39.08 79.77 29.27 90.33 35.46 65.21 45.34"/><polygon class="cls-5" points="90.31 46.87 65.4 56.58 65.4 45.25 90.32 35.45 90.31 46.87"/><polygon class="cls-8" points="9.03 69.02 24.23 54.58 29.2 57.5 55.9 46.99 63.24 51.28 36.54 61.79 41.52 64.7 9.03 69.02"/><polygon class="cls-2" points="11.06 81.17 .5 75.07 .5 63.75 11.06 69.85 11.06 81.17"/></g></svg>