<?xml version="1.0" encoding="UTF-8"?><svg id="Ebene_2" xmlns="http://www.w3.org/2000/svg" xmlns:xlink="http://www.w3.org/1999/xlink" viewBox="0 0 97.58 81.48"><defs><style>.cls-1{fill:#7f7f80;}.cls-1,.cls-2,.cls-3,.cls-4,.cls-5,.cls-6{stroke:#1d1d1b;stroke-linejoin:round;}.cls-7{fill:url(#Unbenannter_Verlauf_37);}.cls-2{fill:#a5a4a4;}.cls-3{fill:#504f4f;}.cls-4{fill:#828282;}.cls-5{fill:#1c1c1c;}.cls-6{fill:#969696;}</style><linearGradient id="Unbenannter_Verlauf_37" x1="59.25" y1="75.88" x2="107.03" y2="61.93" gradientTransform="translate(-47.78 29.88) rotate(-30.38)" gradientUnits="userSpaceOnUse"><stop offset="0" stop-color="#cb6481" stop-opacity="0"/><stop offset=".13" stop-color="#ce5b76" stop-opacity=".22"/><stop offset=".29" stop-color="#d3516b" stop-opacity=".45"/><stop offset=".45" stop-color="#d64a61" stop-opacity=".65"/><stop offset=".61" stop-color="#d9435a" stop-opacity=".8"/><stop offset=".75" stop-color="#db3f55" stop-opacity=".91"/><stop offset=".89" stop-color="#dc3c52" stop-opacity=".98"/><stop offset="1" stop-color="#dd3c51"/></linearGradient></defs><g id="Ebene_1-2"><polygon class="cls-2" points="11.06 80.98 .5 74.87 .5 63.56 11.06 69.65 11.06 80.98"/><polygon class="cls-6" points="10.87 69.74 .5 63.48 25.43 53.67 35.99 59.86 10.87 69.74"/><polygon class="cls-4" points="35.97 71.27 11.06 80.98 11.06 69.65 35.98 59.85 35.97 71.27"/><polygon class="cls-3" points="97.08 60.55 57.32 37.28 57.32 .5 97.08 23.77 97.08 60.55"/><polygon class="cls-1" points="17.08 54.93 58.93 35.81 58.93 2.52 17.08 21.63 17.08 54.93"/><polygon class="cls-5" points="97.08 40.63 80.6 47.14 71.02 41.77 97.08 31.55 97.08 40.63"/><polygon class="cls-7" points="85.48 38.84 53.01 43.15 57.99 46.06 31.31 56.56 38.64 60.85 65.32 50.36 70.3 53.27 85.48 38.84"/></g></svg>