<?xml version="1.0" encoding="UTF-8" standalone="no"?>
<!-- Generator: Adobe Illustrator 26.0.3, SVG Export Plug-In . SVG Version: 6.00 Build 0)  -->

<svg
   version="1.1"
   x="0px"
   y="0px"
   viewBox="0 0 128 128"
   xml:space="preserve"
   id="svg39"
   width="128"
   height="128"
   xmlns:xlink="http://www.w3.org/1999/xlink"
   xmlns="http://www.w3.org/2000/svg"
   xmlns:svg="http://www.w3.org/2000/svg"><defs
   id="defs43"><linearGradient
     id="linearGradient22227"><stop
       style="stop-color:#999999;stop-opacity:1"
       offset="0"
       id="stop22223" /><stop
       style="stop-color:#737373;stop-opacity:1"
       offset="1"
       id="stop22225" /></linearGradient><filter
     style="color-interpolation-filters:sRGB"
     id="filter1108"
     x="-0.030719999"
     y="-0.030719999"
     width="1.06144"
     height="1.06144"><feGaussianBlur
       stdDeviation="0.32768"
       id="feGaussianBlur1110" /></filter><linearGradient
     xlink:href="#linearGradient22227"
     id="linearGradient22229"
     x1="7.75"
     y1="6.25"
     x2="7.75"
     y2="121.5"
     gradientUnits="userSpaceOnUse" /></defs>
<style
   type="text/css"
   id="style2">
	.st0{display:none;}
	.st1{display:inline;}
	.st2{fill:url(#SVGID_1_);}
	.st3{fill:url(#SVGID_00000090263770694407464230000003926192412358479544_);}
	.st4{fill:#FFFFFF;}
</style>

<path
   class="st2"
   d="M 14.2,1.4 C 7.2,1.4 1.4,7.1 1.4,14.2 1.4,21.3 7.1,27 14.2,27 21.2,27 27,21.3 27,14.2 27,7.1 21.2,1.4 14.2,1.4 Z"
   id="path1048"
   style="opacity:0.667;mix-blend-mode:normal;fill:#000000;filter:url(#filter1108)"
   transform="matrix(4.5229085,0,0,4.5229085,1.5518068,1.5518069)" /><path
   class="st2"
   d="m 64.002617,6.1093886 c -31.660359,0 -57.8932284,25.7805784 -57.8932284,57.8932284 0,32.112651 25.7805794,57.893233 57.8932284,57.893233 31.66036,0 57.893223,-25.780583 57.893223,-57.893233 0,-32.11265 -26.232863,-57.8932284 -57.893223,-57.8932284 z"
   id="path20"
   style="fill:url(#linearGradient22229);fill-opacity:1;stroke-width:4.52291" />

<g
   aria-label="?"
   id="text11919"
   style="font-weight:bold;font-size:123.174px;line-height:1.25;font-family:Jura;-inkscape-font-specification:'Jura Bold';fill:#ffffff;stroke-width:3.07933"
   transform="matrix(1.0496724,0,0,1.0496724,-2.7932209,-7.5182647)"><path
     id="path16069"
     style="font-weight:600;-inkscape-font-specification:'Jura Semi-Bold';fill:#ffffff"
     d="m 64.212328,90.271325 c -3.038292,0 -4.557438,-1.498617 -4.557438,-4.495851 0,-4.393206 0.718515,-7.903665 2.155545,-10.531378 1.43703,-2.66877 3.161466,-4.783257 5.173308,-6.343461 2.0529,-1.560204 4.361324,-2.853531 6.167876,-3.879981 1.806552,-1.108566 3.914275,-2.155545 5.187073,-3.140937 1.313856,-1.02645 2.887824,-2.278719 3.58581,-3.756807 0.697986,-1.519146 1.046979,-3.592575 1.046979,-6.220287 0,-5.050134 -0.923805,-8.499006 -2.771415,-10.346617 -1.806552,-1.84761 -5.234895,-2.771415 -10.285029,-2.771415 h -9.767451 c -5.050135,0 -10.0138,0.944334 -11.86141,2.833002 -1.84761,1.888669 -2.771415,5.317012 -2.771415,10.28503 0,2.997234 -1.498617,4.495851 -4.495851,4.495851 -3.038292,0 -4.557438,-1.498617 -4.557438,-4.495851 0,-7.472557 1.827081,-13.035916 5.481243,-16.690078 3.654162,-3.654162 10.732314,-5.481243 18.204871,-5.481243 h 9.767451 c 7.513614,0 13.076973,1.806552 16.690077,5.419656 3.613105,3.613104 5.419657,9.196992 5.419657,16.751665 0,4.393206 -0.718515,7.924194 -2.155546,10.592964 -1.43703,2.627712 -3.750042,4.72167 -5.802942,6.281874 -2.011842,1.519146 -4.468558,2.812473 -6.234052,3.879981 -1.806552,1.108566 -3.745454,2.176074 -5.05931,3.202524 -1.313856,0.985393 -2.319777,2.237662 -3.017763,3.756808 -0.697986,1.478088 -1.046979,3.530988 -1.046979,6.1587 0,2.997234 -1.498617,4.495851 -4.495851,4.495851 z m -1.354914,17.486505 c -2.956176,0 -4.434264,-1.49862 -4.434264,-4.49579 v -2.83297 c 0,-2.915121 1.478088,-4.37268 4.434264,-4.37268 h 2.771415 c 2.833002,0 4.249503,1.457559 4.249503,4.37268 v 2.83297 c 0,2.99717 -1.416501,4.49579 -4.249503,4.49579 z" /></g></svg>
