<?xml version="1.0" encoding="UTF-8" standalone="no"?>
<!-- Generator: Adobe Illustrator 26.0.3, SVG Export Plug-In . SVG Version: 6.00 Build 0)  -->

<svg
   version="1.1"
   id="svg39"
   x="0px"
   y="0px"
   viewBox="0 0 128 128"
   style="enable-background:new 0 0 128 128;"
   xml:space="preserve"
   xmlns="http://www.w3.org/2000/svg"
   xmlns:svg="http://www.w3.org/2000/svg"><defs
   id="defs26" />
<style
   type="text/css"
   id="style2">
	.st0{opacity:0.667;filter:url(#filter1108);enable-background:new    ;}
	.st1{fill:url(#path20_00000148626066126748060400000000021646138141942704_);}
	.st2{fill:#FFFFFF;}
</style>
<filter
   height="1.06144"
   id="filter1108"
   style="color-interpolation-filters:sRGB"
   width="1.06144"
   x="-0.030719998"
   y="-0.030719998">
	<feGaussianBlur
   id="feGaussianBlur1110"
   stdDeviation="1.48224" />
</filter>
<g
   id="path1048"
   class="st0"
   style="filter:url(#filter1108);fill:#470b13;fill-opacity:1">
	<circle
   cx="65.8"
   cy="65.8"
   r="57.9"
   id="circle6"
   style="fill:#470b13;fill-opacity:1" />
</g>
<linearGradient
   id="path20_00000054231434763060429100000000751819095064151471_"
   gradientUnits="userSpaceOnUse"
   x1="64.0026"
   y1="123.75"
   x2="64.0026"
   y2="8.5"
   gradientTransform="matrix(1 0 0 -1 0 130)">
	<stop
   offset="0"
   style="stop-color:#e95366;stop-opacity:1"
   id="stop9" />
	<stop
   offset="1"
   style="stop-color:#bf1d34;stop-opacity:1"
   id="stop11" />
</linearGradient>
<path
   id="path20"
   style="fill:url(#path20_00000054231434763060429100000000751819095064151471_);"
   d="M64,6.1  C32.3,6.1,6.1,31.9,6.1,64s25.8,57.9,57.9,57.9c31.7,0,57.9-25.8,57.9-57.9S95.7,6.1,64,6.1z" />
<path
   class="st2"
   d="M81.5,95.3c-0.1,0-0.3,0-0.4,0h-0.6C80.8,95.3,81.2,95.3,81.5,95.3z"
   id="path15" />
<path
   class="st2"
   d="M80.9,43.1c-0.2,0-0.3,0-0.5,0h0.3C80.8,43.1,80.9,43.1,80.9,43.1z"
   id="path17" />
<g
   id="g21">
	<path
   id="path1404"
   d="m 60.849609,23.6875 c -0.482015,0 -0.965879,0.186583 -1.371093,0.591797 L 37.078125,46.679688 c -0.0063,0.0067 -0.01285,0.01319 -0.01953,0.01953 -0.765129,0.688615 -0.778259,1.924866 0.01953,2.722656 l 22.5,22.5 c 0.810428,0.810428 1.93176,0.810428 2.742187,0 l 2.800782,-2.800781 c 0.810428,-0.810428 0.810428,-1.93176 0,-2.742188 -6.68e-4,-6.65e-4 -0.0013,-0.0013 -0.002,-0.002 C 60.580708,61.747645 55.94396,57.214346 51.428637,52.5625 h 26.872144 c 0.0059,5.7e-4 0.01173,0.0012 0.01758,0.002 8.981287,0.3097 16.21875,7.647186 16.21875,16.634766 0,9.084312 -7.239661,16.430168 -16.224609,16.636719 -0.0039,7.1e-4 -0.0078,0.0014 -0.01172,0.002 H 38.099609 c -1.810826,0 -3.261718,1.450892 -3.261718,3.261718 V 91.5 c 0,1.810827 1.451224,3.263672 3.261718,3.263672 h 39.800782 0.990234 c 13.715147,-0.595107 24.572265,-11.750577 24.572265,-25.564453 0,-13.908995 -11.153885,-25.262201 -25.062499,-25.5625 l -0.5,-7.19e-4 H 51.274169 c 4.608054,-4.582663 9.16775,-9.200498 13.745362,-13.813731 6.65e-4,-6.68e-4 0.0013,-0.0013 0.002,-0.002 0.810428,-0.810427 0.810428,-1.931759 0,-2.742187 L 62.220703,24.279297 C 61.815489,23.874083 61.331625,23.6875 60.849609,23.6875 Z"
   style="fill:#ffffff" />
</g>
</svg>
