<?xml version="1.0" encoding="UTF-8" standalone="no"?>
<svg
   version="1.1"
   width="540"
   height="182"
   id="svg4232"
   xmlns="http://www.w3.org/2000/svg"
   xmlns:svg="http://www.w3.org/2000/svg">
  <defs
     id="defs4234" />
  <g
     transform="translate(-130.33351,-394.59072)"
     id="layer1">
    <path
       d="m 271.0889,441.05367 v 36.89704 c 0,1.83664 -1.57975,4.86494 -3.4164,6.69613 l -37.58032,37.58031 c -0.91833,0.91833 -1.85852,1.36657 -2.4598,1.36657 -0.60129,0 -0.9566,-0.44824 -0.9566,-1.36657 v 4.09968 c 0,1.83665 1.57975,3.4164 3.4164,3.4164 h 81.85677 c 1.83665,0 3.41639,-1.57975 3.41639,-3.4164 V 444.3334 c 0,-1.83666 -1.57974,-3.27973 -3.41639,-3.27973 z m -52.06583,85.27316 c 0,1.83665 -1.58521,3.4164 -3.41639,3.4164 h -40.86007 v 44.54975 c 0,0.91832 0.36077,1.36656 0.95659,1.36656 0.59583,0 1.40483,-0.44824 2.32315,-1.36656 l 37.58033,-37.58032 c 1.83118,-1.83665 3.41639,-4.85948 3.41639,-6.69613 z"
       id="path84"
       style="fill:#7d8990;fill-opacity:1;fill-rule:nonzero;stroke:none" />
    <path
       d="m 270.1323,394.59072 c -0.60404,0 -1.54147,0.44823 -2.4598,1.36656 l -37.58032,37.71698 c -1.83118,1.83119 -3.4164,4.72282 -3.4164,6.55948 v 4.09966 77.89375 c 0,1.83666 1.58522,1.83666 3.4164,0 l 37.58032,-37.58031 c 1.83665,-1.83665 3.4164,-4.85949 3.4164,-6.69613 v -36.89704 -45.09639 c 0,-0.91833 -0.35247,-1.36656 -0.9566,-1.36656 z m -136.3824,46.46295 c -1.83665,0 -3.41639,1.44307 -3.41639,3.27973 v 81.99343 c 0,1.83665 1.57974,3.4164 3.41639,3.4164 h 81.85678 c 1.83665,0 3.41639,-1.57975 3.41639,-3.4164 V 444.3334 c 0,-1.83666 -1.57974,-3.27973 -3.41639,-3.27973 z"
       id="path88"
       style="fill:#e2001a;fill-opacity:1;fill-rule:nonzero;stroke:none" />
    <path
       d="m 230.09218,441.05367 c -1.83665,0 -3.4164,1.57974 -3.4164,3.41639 v 77.75709 c 0,0.91833 0.35553,1.36657 0.9566,1.36657 0.60128,0 1.54147,-0.44824 2.4598,-1.36657 l 37.58032,-37.58031 c 1.83665,-1.83665 3.4164,-4.86494 3.4164,-6.69613 v -36.89704 z m -12.0257,5.60288 c -0.60675,0 -1.54148,0.4537 -2.4598,1.36655 l -37.58033,37.71698 c -1.83118,1.86945 -3.27974,4.72829 -3.27974,6.55947 v 37.44368 h 40.86007 c 1.83665,0 3.41639,-1.57975 3.41639,-3.4164 V 448.0231 c 0,-0.91285 -0.35553,-1.36655 -0.95659,-1.36655 z"
       id="path100"
       style="fill:#8e1016;fill-opacity:1;fill-rule:nonzero;stroke:none" />
    <path
       d="m 523.08202,441.19032 c -0.62862,0 -1.20257,0.14737 -1.63987,0.54662 -0.44824,0.4045 -0.68327,0.88007 -0.68327,1.50322 v 84.17992 c 0,0.61768 0.23483,1.19163 0.68327,1.63986 0.4373,0.42637 1.01125,0.68329 1.63987,0.68329 h 20.22504 c 4.14887,0 8.17202,-0.62862 11.88905,-1.77654 3.71704,-1.1643 6.91478,-2.7659 9.70256,-4.9196 2.79323,-2.18102 4.9688,-4.87041 6.55947,-8.06268 1.59067,-3.18681 2.4598,-6.8164 2.4598,-10.79581 0,-2.74951 -0.47556,-5.3569 -1.50321,-7.78937 -1.01672,-2.43794 -2.37781,-4.56976 -4.09967,-6.42283 -1.73279,-1.86397 -3.7553,-3.31252 -6.01285,-4.50963 -2.25209,-1.1971 -4.64083,-2.01703 -7.1061,-2.4598 1.77106,-0.53023 3.55305,-1.39935 5.46623,-2.59647 1.90772,-1.19163 3.73344,-2.64565 5.32957,-4.37297 1.59614,-1.72734 2.90257,-3.71157 3.96301,-5.8762 1.06592,-2.1701 1.63987,-4.4495 1.63987,-6.83279 0,-3.80995 -0.71607,-7.06236 -2.18649,-9.8392 -1.47041,-2.79325 -3.42732,-5.15466 -5.87619,-6.96944 -2.43794,-1.80932 -5.24211,-3.21414 -8.47266,-4.09968 -3.236,-0.88006 -6.64693,-1.2299 -10.11252,-1.2299 z m 61.35841,0 c -0.61768,0 -1.09871,0.15305 -1.50321,0.54662 -0.38832,0.39926 -0.4537,0.88553 -0.27331,1.50322 l 16.94531,84.17992 c 0.18016,0.60675 0.60675,1.19163 1.09325,1.63986 0.48649,0.43162 1.02765,0.68329 1.63987,0.68329 h 6.69612 c 0.62316,0 1.15338,-0.25145 1.63987,-0.68329 0.47556,-0.44823 0.77621,-1.03311 0.95659,-1.63986 l 14.48551,-74.20406 14.62215,74.20406 c 0.17492,0.60675 0.4701,1.19163 0.95659,1.63986 0.4865,0.43162 1.02765,0.68329 1.63987,0.68329 h 6.69614 c 0.62861,0 1.19164,-0.25145 1.63987,-0.68329 0.44822,-0.44823 0.7762,-1.03311 0.95658,-1.63986 l 16.94531,-84.17992 c 0.18585,-0.61769 0.0765,-1.10418 -0.27331,-1.50322 -0.36646,-0.39357 -0.75434,-0.54662 -1.36655,-0.54662 h -5.32958 c -1.3283,0 -2.24662,0.63409 -2.59645,2.04984 l -13.11896,74.3407 -14.62215,-74.3407 c -0.35554,-1.41575 -1.11512,-2.04984 -2.45981,-2.04984 H 623.114 c -1.41028,0 -2.25208,0.63409 -2.59646,2.04984 l -14.48551,74.3407 -13.2556,-74.3407 c -0.36077,-1.41575 -1.32282,-2.04984 -2.73311,-2.04984 z m -53.979,7.78938 h 14.4855 c 4.97427,0 9.04661,1.31189 12.16236,3.96301 3.09935,2.65112 4.6463,6.28069 4.6463,10.7958 0,2.30129 -0.5357,4.34566 -1.50322,6.28616 -0.98392,1.94598 -2.22475,3.65144 -3.82635,5.05627 -1.59067,1.42122 -3.43279,2.48166 -5.46623,3.27974 -2.04437,0.80353 -4.21447,1.22989 -6.42282,1.22989 h -14.07554 z m 0,38.2636 h 14.4855 c 5.59196,0 10.15079,1.54147 13.66557,4.50964 3.49293,2.96269 5.19293,6.88744 5.19293,12.0257 0,2.66205 -0.38265,5.16012 -1.36657,7.37941 -0.97845,2.20835 -2.36687,4.14886 -4.09967,5.73953 -1.72732,1.59615 -3.70611,2.80418 -6.01285,3.6897 -2.30675,0.89647 -4.81028,1.36657 -7.37941,1.36657 h -14.4855 z"
       id="path238"
       style="fill:#5d6971;fill-opacity:1;fill-rule:nonzero;stroke:none" />
    <path
       d="m 362.64821,441.19032 c -0.97298,0 -1.74372,0.1911 -2.32314,0.81994 -0.57395,0.61221 -0.81993,1.48135 -0.81993,2.4598 v 81.99343 c 0,0.97298 0.24576,1.69999 0.81993,2.32314 0.56849,0.61222 1.35016,0.9566 2.32314,0.9566 h 22.27489 c 6.11124,0 11.572,-1.10965 16.53534,-3.4164 4.97427,-2.29581 9.25978,-5.58648 12.70898,-9.70256 3.45466,-4.12153 6.15497,-8.95368 8.06269,-14.62215 1.90225,-5.66302 2.73311,-11.80707 2.73311,-18.44853 0,-6.36816 -0.91286,-12.18422 -2.86977,-17.35528 -1.94598,-5.18197 -4.69549,-9.66975 -8.19934,-13.39225 -3.49292,-3.72251 -7.74018,-6.57588 -12.70899,-8.60931 -4.95786,-2.03891 -10.3749,-3.00643 -16.39868,-3.00643 z m 80.62688,0 c -0.96752,0 -1.74374,0.1911 -2.32315,0.81994 -0.56849,0.61221 -0.95659,1.48135 -0.95659,2.4598 v 81.99343 c 0,0.97298 0.38832,1.69999 0.95659,2.32314 0.57941,0.61222 1.35563,0.9566 2.32315,0.9566 h 9.15593 c 0.96752,0 1.71639,-0.33892 2.32315,-0.9566 0.61767,-0.61768 0.95659,-1.35016 0.95659,-2.32314 V 489.9764 h 30.61088 v 36.48709 c 0,0.97298 0.38832,1.70546 0.95658,2.32314 0.56849,0.61768 1.21351,0.9566 2.18649,0.9566 h 9.15593 c 0.97847,0 1.84212,-0.3446 2.45981,-0.9566 0.61768,-0.62315 0.95658,-1.35016 0.95658,-2.32314 v -81.99343 c 0,-0.97845 -0.3389,-1.84759 -0.95658,-2.4598 -0.61769,-0.62862 -1.48134,-0.81994 -2.45981,-0.81994 h -9.15593 c -0.97298,0 -1.618,0.1911 -2.18649,0.81994 -0.56848,0.61221 -0.95658,1.48135 -0.95658,2.4598 v 32.52405 h -30.61088 v -32.52405 c 0,-0.97845 -0.33892,-1.84759 -0.95659,-2.4598 -0.60676,-0.62862 -1.35563,-0.81994 -2.32315,-0.81994 z m -68.19121,12.29902 h 9.97587 c 3.72797,0 7.04597,0.7762 9.97588,2.32314 2.92442,1.55787 5.43889,3.62957 7.51606,6.28616 2.08262,2.65659 3.71156,5.88713 4.78294,9.5659 1.06045,3.67877 1.50322,7.63633 1.50322,11.88905 0,4.96334 -0.48103,9.39645 -1.63987,13.52892 -1.15338,4.11059 -2.88617,7.77843 -5.05626,10.7958 -2.17557,3.01189 -4.77202,5.28584 -7.78938,6.96943 -3.02282,1.6836 -6.39549,2.59647 -10.11253,2.59647 h -9.15593 z"
       id="path242"
       style="fill:#e2001a;fill-opacity:1;fill-rule:nonzero;stroke:none" />
  </g>
</svg>
