<?xml version="1.0" encoding="UTF-8" standalone="no"?>
<svg
   viewBox="0 0 245.95561 152.44963"
   version="1.1"
   id="svg46"
   width="245.95561"
   height="152.44963"
   xmlns="http://www.w3.org/2000/svg"
   xmlns:svg="http://www.w3.org/2000/svg">
  <defs
     id="defs4">
    <style
       id="style2">.cls-1{isolation:isolate;}.cls-2{mix-blend-mode:multiply;opacity:0.75;}.cls-3{fill:#dd3b51;}.cls-4{fill:#be9779;}.cls-5{fill:#cfa686;}.cls-6{fill:#e2b593;}.cls-7{fill:#4a4b71;}.cls-8{fill:#fac79f;}.cls-9{fill:#d6b398;}.cls-10{fill:#fff;}</style>
  </defs>
  <g
     class="cls-1"
     id="g44"
     transform="translate(-54,-81.347089)">
    <g
       id="Ebene_2"
       data-name="Ebene 2">
      <g
         id="Ebene_1-2"
         data-name="Ebene 1">
        <path
           class="cls-4"
           d="m 68.08,88.48 c 0,0 -6,-4.94 -13.46,4.8 -1.88,2.44 27.11,27.12 27.11,27.12 l 43.75,31.38 2.19,-16.78 z"
           id="path10"
           style="fill:#be9779" />
        <path
           class="cls-5"
           d="m 145.75,170.2 c 0,0 -82.83,-74.89 -83.57,-78.58 -0.74,-3.69 5.22,-13 14.44,-9.5 9.22,3.5 26,19.36 26,19.36 l 29.29,16.52 61.61,26.93 12.73,37 c 0,0 -56.25,-7.85 -60.5,-11.73 z"
           id="path12"
           style="fill:#cfa686" />
        <path
           class="cls-6"
           d="m 221.75,185.88 c 2.58,3 25.82,30.26 25.82,30.26 L 283,181.9 c 0,0 -34.31,-41.14 -37.26,-43.85 -2.95,-2.71 -5.9,-13 -43.54,-14.15 -37.64,-1.15 -33.88,-2.11 -33.88,-2.11 0,0 -33.76,-13.28 -44.55,-10 -10.79,3.28 -13.83,19 2.22,26.22 16.05,7.22 40.39,9.75 40.39,9.75 l 39.88,34.11 c 0,0 12.91,1.06 15.49,4.01 z"
           id="path14"
           style="fill:#e2b593" />
        <rect
           class="cls-7"
           x="12.596397"
           y="303.82489"
           width="68.370003"
           height="39.41"
           transform="rotate(-45)"
           id="rect16"
           style="fill:#4a4b71" />
        <path
           class="cls-8"
           d="m 135.62,135.42 c 2.47,-0.28 3.37,-1.94 3.8,-4.48 0.43,-2.54 2.83,-9.92 2,-11.19 -0.83,-1.27 -17,-9.53 -23,-0.53 -5,7.43 4.8,12.18 7,13.16 0.58,0.25 8.89,3.19 10.2,3.04 z"
           id="path18"
           style="fill:#fac79f" />
        <path
           class="cls-9"
           d="m 72.37,102.39 a 6.15,6.15 0 0 0 0,-4.79 c -1.12,-2.45 -7.48,-7.49 -8.54,-7.55 -1.06,-0.06 -1.71,1.85 -1.71,1.85 z"
           id="path20"
           style="fill:#d6b398" />
        <path
           class="cls-9"
           d="m 64.45,104.93 c 0,0 0.89,-1.1 0,-3.42 -0.89,-2.32 -8.88,-9.38 -9.11,-9.1 C 55.11,92.69 54,94 54,94 a 92.61,92.61 0 0 0 10.45,10.93 z"
           id="path22"
           style="fill:#d6b398" />
      </g>
    </g>
  </g>
</svg>
