<?xml version="1.0" encoding="UTF-8" standalone="no"?>
<svg
   viewBox="0 0 186.00884 186.00884"
   version="1.1"
   id="svg50"
   width="186.00883"
   height="186.00883"
   xmlns="http://www.w3.org/2000/svg"
   xmlns:svg="http://www.w3.org/2000/svg">
  <defs
     id="defs4">
    <style
       id="style2">.cls-1{isolation:isolate;}.cls-2{mix-blend-mode:multiply;opacity:0.75;}.cls-3{fill:#dd3b51;}.cls-4{fill:#cfa686;}.cls-5{fill:#e2b593;}.cls-6{fill:#ebbb98;}.cls-7{fill:#4a4b71;}.cls-8{fill:#fac79f;}.cls-9{fill:#fff;}</style>
  </defs>
  <g
     class="cls-1"
     id="g48"
     transform="translate(-1.9025282,-46.082327)">
    <g
       id="Ebene_2"
       data-name="Ebene 2">
      <g
         id="Ebene_1-2"
         data-name="Ebene 1">
        <path
           class="cls-4"
           d="m 137.43346,112.81944 c 0,0 16.07,22.29 22.29,20.74 a 8.2,8.2 0 0 0 6.4,-7.43 l -16.94,-24 z"
           id="path10" />
        <path
           class="cls-4"
           d="m 149.53346,105.21944 c 0,0 16.07,22.29 22.29,20.73 a 8.21,8.21 0 0 0 6.4,-7.43 l -16.94,-23.999999 z"
           id="path12" />
        <path
           class="cls-4"
           d="m 153.76346,91.179441 c 0,0 20.76,17.999999 26.46,15.079999 a 8.2,8.2 0 0 0 4.52,-8.699999 l -22,-19.5 z"
           id="path14" />
        <path
           class="cls-4"
           d="m 162.17346,89.819441 c 0,13.399999 -15.51,24.259999 -34.63,24.259999 -19.12,0 -34.629998,-10.86 -34.629998,-24.259999 0,-13.4 15.499998,-24.26 34.629998,-24.26 19.13,0 34.63,10.89 34.63,24.26 z"
           id="path16" />
        <path
           class="cls-5"
           d="m 40.583462,159.51944 c 0,0 26.5,-91.999999 28.8,-93.999999 2.3,-2 54.609998,-20.07 62.209998,-19.42 7.6,0.65 53.92,18 54.62,22.81 0.7,4.81 -6.23,13.83 -18.9,9.68 -12.67,-4.15 -30.42,-8.07 -30.42,-8.07 l -33.41,13.83 c 0,0 0.69,18.429999 8.07,29.719999 7.38,11.29 -14.059998,68.13 -15.669998,69.78 -1.61,1.65 -19.82,14.1 -19.82,14.1 z"
           id="path18" />
        <path
           class="cls-6"
           d="m 104.87346,100.93944 43.32,-23.999999 c 0,0 19.35,-16.32 27.63,-9.87 8.28,6.45 3.45,19.35 -4.38,26.26 -7.83,6.909999 -33.62,30.169999 -34.55,31.119999 -0.93,0.95 -14,44.38 -44.929998,50.77 -30.93,6.39 -15.43,-58.61 12.909998,-74.28 z"
           id="path20" />
        <path
           class="cls-6"
           d="m 75.973462,147.54944 -18.19,31 17.09,19.42 c 0,0 31.299998,-14.54 46.659998,-44 15.36,-29.46 -43.999998,-6.37 -43.999998,-6.37"
           id="path22" />
        <rect
           class="cls-7"
           x="-111.4873"
           y="133.15762"
           width="47.119999"
           height="77.589996"
           transform="rotate(-41.11)"
           id="rect24" />
        <path
           class="cls-8"
           d="m 154.92346,76.099441 c -1.16,2 -0.45,3.53 1.16,5.25 1.61,1.72 6.43,6.58 7.79,6.68 1.36,0.1 15.58,-6.15 12.35,-15.51 -2.66,-7.73 -11.52,-3.23 -13.46,-2.15 -0.51,0.28 -7.23,4.7 -7.84,5.73 z"
           id="path26" />
      </g>
    </g>
  </g>
</svg>
